<?xml version="1.0" encoding="UTF-8" standalone="no"?>
<svg
   viewBox="0 0 100 100"
   version="1.1"
   id="svg9"
   xmlns="http://www.w3.org/2000/svg"
   >
  <g
     id="layer1"
     transform="translate(0.91960142,10.029258)">
    <g
       id="g334"
       transform="translate(-1.3120517,-2.9505279)">
      <path
         d="M 21.238219,37.792407 C 24.028664,21.862701 24.969115,11.514622 49.823266,11.94396 66.596583,13.090656 76.014529,10.313321 76.729628,33.05312 l 6.230868,-0.324971 C 83.248199,10.552834 76.284093,5.5829441 48.728081,5.9715232 24.79595,5.6139328 14.031224,15.739207 14.071523,37.446851"
         id="path169"
  	 />
      <path
         d="M 79.059252,42.869215 89.562085,27.220176 79.79533,31.873339 71.478005,26.693889"
         id="path330"
        />
    </g>
    <g
       id="g273"
       transform="rotate(180,48.530801,43.489814)">
      <path
         d="M 21.238219,37.792407 C 24.028664,21.862701 24.969115,11.514622 49.823266,11.94396 66.596583,13.090656 76.014529,10.313321 76.729628,33.05312 l 6.230868,-0.324971 C 83.248199,10.552834 76.284093,5.5829441 48.728081,5.9715232 24.79595,5.6139328 14.031224,15.739207 14.071523,37.446851"
         id="path269"
       />
      <path
         d="M 79.059252,42.869215 89.562085,27.220176 79.79533,31.873339 71.478005,26.693889"
         id="path271"
        />
    </g>
  </g>
</svg>
